<svg xmlns="http://www.w3.org/2000/svg" width="64" height="64" viewBox="0 0 64 64" fill="none">
  <!-- Pinwheel blades rotating around center -->
  <!-- Top blade -->
  <path d="M32 32 C32 18 24 6 32 2 C40 6 32 18 32 32Z" fill="#14b8a6"/>
  <!-- Right blade -->
  <path d="M32 32 C46 32 58 24 62 32 C58 40 46 32 32 32Z" fill="#0d9488"/>
  <!-- Bottom blade -->
  <path d="M32 32 C32 46 40 58 32 62 C24 58 32 46 32 32Z" fill="#14b8a6"/>
  <!-- Left blade -->
  <path d="M32 32 C18 32 6 40 2 32 C6 24 18 32 32 32Z" fill="#0d9488"/>
  <!-- Center dot -->
  <circle cx="32" cy="32" r="3" fill="#2dd4bf"/>
</svg>
